<?xml version="1.0" encoding="utf-8"?>
<!-- Generator: Adobe Illustrator 21.1.0, SVG Export Plug-In . SVG Version: 6.00 Build 0)  -->
<svg version="1.1" id="Layer_1" xmlns="http://www.w3.org/2000/svg" xmlns:xlink="http://www.w3.org/1999/xlink" x="0px" y="0px"
	 viewBox="0 0 16 16" style="enable-background:new 0 0 16 16;" xml:space="preserve">
<style type="text/css">
	.st0{fill:#99CC00;}
	.st1{fill:none;stroke:#000000;stroke-width:0.2124;stroke-miterlimit:10;}
	.st2{fill:#999B97;}
</style>
<g id="Layer_1_1_">
</g>
<polygon class="st0" points="4.7,6.6 4.7,12.4 7.3,12.4 7.3,9.1 9.9,12.4 13.2,12.4 13.2,6.6 10.8,6.6 10.8,10.2 8,6.6 "/>
<path class="st1" d="M21.2,2.1"/>
<g>
	<g>
		<path class="st2" d="M4.5,5.8"/>
		<path class="st2" d="M3.9,6.3"/>
		<path class="st2" d="M2.4,8.6c0.6,0,1-0.1,1.3-0.7c0.2-0.5,0-1.3,0.2-1.6L5,5.4c0.3-0.2,1.6,0,2.1-0.3c0.6-0.3,0.7-0.7,0.7-1.4
			c0-0.6-0.4-1.5-1.5-1.5c-0.6,0-1.2,0.1-1.5,0.7C4.5,3.4,4.6,4.4,4.4,4.7c0,0-0.8,0.8-1.1,0.9s-1.1-0.1-1.6,0
			C1,5.8,0.8,6.2,0.7,6.8C0.5,7.8,1.7,8.7,2.4,8.6"/>
	</g>
</g>
</svg>
